<?xml version="1.0"?><svg width="100%" height="100%" viewBox="0 0 314 301" version="1.1" xmlns="http://www.w3.org/2000/svg" xmlns:xlink="http://www.w3.org/1999/xlink" xml:space="preserve" xmlns:serif="http://www.serif.com/" style="fill-rule:evenodd;clip-rule:evenodd;stroke-linejoin:round;stroke-miterlimit:2;"><g><path d="M32.621,300.869c-0.756,-7.069 2.029,-14.399 1.011,-14.808c-1.784,-0.719 -26.422,4.338 -32.633,-16.958c-1.127,-3.86 -1.533,-25.699 0.028,-28.223c1.026,-1.658 1.34,-1.247 3.096,-1.982c13.301,0.679 -4.536,30.502 14.651,37.09c3.457,1.187 18.844,0.967 19.399,0.222c0.445,-0.597 0.306,-0.672 5.081,-7.783c2.008,-2.99 -5.82,-1.443 -17.374,-23.074c-4.089,-7.654 -13.978,-36.171 -0.36,-40.116c2.031,-0.588 5.442,-0.863 9.793,-1.921c7.629,-1.855 7.494,-2.189 14.817,-5.093c27.358,-13.301 25.62,-21.241 37.197,-17.659c8.349,2.582 17.463,18.389 50.937,24.112c7.969,1.362 11.48,6.267 8.089,23.408c-5.28,26.692 -23.696,38.192 -23.564,39.79c0.059,0.709 0.604,0.436 4.792,7.478c0.638,1.074 1.117,1.875 15.559,1.388c7.063,-0.237 13.59,-5.343 13.756,-13.776c0.072,-3.674 0.57,-28.906 -0.087,-45.949c-1.242,-32.226 -30.369,-73.329 -81.007,-69.066c-47.161,5.282 -65.376,44.041 -66.39,70.294c-0.224,5.812 0.424,7.341 -5.282,8.558c-4.054,-1.962 -4.715,-2.7 -3.37,-15.251c2.99,-27.886 26.378,-71.161 81.127,-73.144c2.274,-0.081 0.865,-6.488 1.365,-26.09c2.455,-96.401 116.998,-148.361 191.172,-83.546c45.327,39.606 39.239,92.584 39.239,109.874c-0,108.49 0.092,108.536 -0.712,111.499c-6.356,23.416 -33.998,15.891 -35.771,17.631c-1.948,1.909 2.425,21.805 -2.861,33.095l-11.359,-0c2.549,-2.214 4.637,-5.687 4.672,-10.965c0.225,-34.008 1.935,-54.194 -22.206,-77.788c-5.779,-5.647 -7.201,-4.96 -7.859,-4.641c-23.303,11.288 -40.466,9.497 -50.953,8.415c-17.335,-2.401 -21.41,-7.609 -21.048,-3.743c0.668,7.124 0.375,7.076 0.523,48.975c0.082,22.875 -19.764,24.736 -22.936,24.768c-6.302,0.064 -11.035,-0.454 -10.959,0.95c0.153,2.804 1.449,2.64 1.603,13.474l-0.001,0.555l-101.175,-0Z" style="fill:#001138;"></path><path d="M190.926,9.536c52.634,-4.792 113.265,36.671 113.551,106.45c0.041,10.436 0.513,126.229 -0.125,130.459c-2.169,14.366 -19.252,11.837 -24.646,11.824c-0.007,0 -3.006,0.575 -3.194,-1.416c-3.909,-41.07 -30.196,-53.101 -28.397,-55.553c0.347,-0.474 35.097,-21.533 37.837,-67.548c0.151,-2.549 0.715,-22.296 -5.238,-31.093c-8.239,-12.179 -18.249,-10.39 -42.037,-10.388c-5.346,0 -8.464,-0.926 -9.576,4.682c0.969,5.346 3.074,4.501 24.273,4.501c14.023,0 23.229,-1.579 23.48,28.621c0.362,43.237 -40.206,83.333 -88.359,76.862c-1.225,-0.166 -2.432,-0.429 -3.657,-0.592c-0.439,-1.141 -0.745,-1.46 -0.844,-1.564c-0.174,-0.182 -0.434,-0.281 -0.577,-0.49c-20.4,-30.129 -23.893,-47.848 -25.118,-52.277c1.345,-0.817 1.271,-0.824 2.669,-1.625c6.428,-3.672 14.322,-17.096 -4.57,-24.692c0.661,-1.934 0.6,-4.876 3.236,-5.578c6.119,-1.628 3.373,7.104 8.634,8.032c11.309,1.996 3.782,-24.349 -14.018,-15.687c-0.046,-0.081 -0.814,-0.237 -0.776,-1.337c0.023,-0.737 0.255,-7.491 0.495,-9.226l0.204,-0.442c59.149,-0.033 59.547,0.284 61.238,-1.388c1.057,-1.046 4.075,-7.734 -4.904,-7.8c-0.191,-0.002 -33.492,0.003 -55.132,-0.002c0.146,-3.195 0.276,-3.141 0.901,-6.239c8.254,-40.968 29.509,-69.278 33.727,-75.374l0.383,-0.612l0.54,-0.508Z" style="fill:#f9f4e9;"></path><path d="M262.96,300.869l-87.678,-0c0.013,-0.734 0.067,-1.541 0.067,-3.007c0,-43.068 -1.812,-60.467 10.883,-81.446l0.382,-0.526c10.487,1.082 27.65,2.873 50.953,-8.415c0.658,-0.319 2.08,-1.006 7.859,4.641c24.141,23.594 22.431,43.78 22.206,77.788c-0.035,5.278 -2.123,8.751 -4.672,10.965Z" style="fill:#982c2c;"></path><path d="M48.173,208.929c31.157,-12.518 31.456,-22.956 37.246,-19.18c5.103,3.328 21.471,19.183 51.026,23.975c3.09,0.503 2.041,3.774 1.477,8.849c-2.694,24.207 -26.692,56.752 -67.703,47.924c-0.169,-0.256 -0.169,-0.837 -1.342,-2.029c-3.812,-3.868 -15.744,-24.345 -17.844,-34.906l-0.104,-0.612l-0.408,-0.663c0.921,-3.879 0.334,-8.421 0.239,-9.148c-0.201,-1.577 -1.893,-3.138 -2.128,-3.355c-0.074,-0.804 -0.676,-7.382 -0.127,-10.104l-0.332,-0.751Z" style="fill:#f0e0b6;"></path><path d="M190.926,9.536l-0.54,0.508l-0.383,0.612c-4.218,6.096 -25.473,34.406 -33.727,75.374c-0.625,3.098 -0.755,3.044 -0.901,6.239c-20.224,0.002 -30.583,-1.758 -38.896,9.826c-6.489,9.04 -5.596,28.932 -5.529,31.637c0.13,5.419 1.791,9.969 -0.291,9.392c-1.779,-0.492 -5.333,-2.322 -16.483,-4.001c-2.437,-0.365 -1.835,-1.722 -1.835,-12.727c-0,-3.159 -6.221,-60.669 43.915,-96.97c23.516,-17.022 45.717,-19.186 54.67,-19.89Z" style="fill:#f0e0b6;"></path><path d="M75.802,147.949c50.638,-4.263 79.767,36.84 81.007,69.066c0.659,17.042 0.158,42.275 0.087,45.949c-0.168,8.433 -6.693,13.539 -13.756,13.776c-14.442,0.488 -14.921,-0.313 -15.559,-1.388c-4.192,-7.04 -4.733,-6.769 -4.792,-7.478c-0.133,-1.598 18.285,-13.098 23.564,-39.79c3.391,-17.141 -0.12,-22.045 -8.089,-23.408c-33.474,-5.723 -42.588,-21.53 -50.937,-24.112c-11.576,-3.583 -9.839,4.358 -37.197,17.659c-0.036,-0.709 -0.222,-0.661 -0.071,-1.401c5.31,-25.916 21.52,-43.828 24.821,-47.768l0.498,-0.612l0.424,-0.493Z" style="fill:#f9f4e9;"></path><path d="M75.802,147.949l-0.424,0.493l-0.498,0.612c-3.301,3.94 -19.511,21.852 -24.821,47.768c-0.151,0.74 0.035,0.692 0.071,1.401c-7.323,2.904 -7.188,3.241 -14.817,5.093c-4.35,1.059 -7.762,1.332 -9.793,1.921c-13.62,3.937 -3.728,32.462 0.36,40.116c11.556,21.63 19.382,20.084 17.374,23.074c-4.774,7.112 -4.637,7.186 -5.081,7.783c-0.556,0.745 -15.942,0.964 -19.399,-0.222c-19.186,-6.591 -1.35,-36.411 -14.651,-37.09c-0.118,-1.944 -0.092,-9.944 0.007,-12.097c5.706,-1.217 5.057,-2.746 5.282,-8.558c1.013,-26.253 19.229,-65.012 66.39,-70.294Z" style="fill:#f0e0b6;"></path><path d="M154.173,101.459l-0.204,0.442c-0.24,1.735 -0.472,8.489 -0.495,9.226c-0.038,1.1 0.73,1.256 0.776,1.337c-3.1,2.144 -7.32,5.639 -6.249,12.723l-0.569,-0.041c-21.903,5.146 -13.268,20.058 -11.543,21.992c8.137,9.119 21.535,5.047 22.41,4.876c1.225,4.429 4.718,22.148 25.118,52.277c0.143,0.209 0.403,0.308 0.577,0.49c0.099,0.104 0.405,0.423 0.844,1.564c-1.844,-0.396 -20.831,-4.466 -22.076,-8.306c-0.587,-1.809 -7.249,-28.131 -33.518,-45.589c-4.799,-3.189 -6.539,-2.033 -7.659,-7.652c-1.437,-7.208 -5.277,-37.7 8.657,-42.397c3.327,-1.123 3.391,-0.952 23.931,-0.942Z" style="fill:#f9f4ea;"></path><path d="M186.614,215.89l-0.382,0.526c-12.695,20.979 -10.883,38.378 -10.883,81.446c0,1.466 -0.054,2.273 -0.067,3.007l-41.486,-0c0.002,-0.181 0.002,-0.366 0.001,-0.555c-0.205,-10.834 -1.45,-10.67 -1.603,-13.474c-0.076,-1.404 4.657,-0.886 10.959,-0.95c3.172,-0.032 23.018,-1.893 22.936,-24.768c-0.148,-41.899 0.145,-41.851 -0.523,-48.975c-0.362,-3.866 3.713,1.342 21.048,3.743Z" style="fill:#662020;"></path><path d="M71.484,280.182c32.038,4.861 41.247,-9.583 43.852,-6.58c7.563,8.725 9.436,21.377 9.409,27.267l-59.576,-0c-0.103,-11.123 5.178,-18.699 6.19,-20.153l0.125,-0.534Z" style="fill:#cbe6f9;"></path><path d="M48.173,208.929l0.332,0.751c-0.549,2.722 0.053,9.3 0.127,10.104c-8.251,-2.845 -6.983,6.259 -6.958,9.492c0.059,7.741 6.509,7.476 8.847,3.011l0.408,0.663l0.104,0.612c2.1,10.561 14.032,31.038 17.844,34.906c1.173,1.192 1.173,1.773 1.342,2.029c-43.142,-12.166 -43.153,-55.237 -41.989,-56.296c1.222,-1.11 1.908,0.975 19.943,-5.272Z" style="fill:#f9f4ea;"></path><path d="M41.791,300.869c-0.092,-0.516 -0.125,-1.105 -0.114,-1.777c0.035,-2.169 0.24,-15.159 9.244,-25.493c1.074,-1.23 1.322,-0.219 6.007,1.934c5.57,2.56 13.367,4.374 14.556,4.649l-0.125,0.534c-1.012,1.454 -6.293,9.03 -6.19,20.153l-23.378,-0Z" style="fill:#f5fbff;"></path><path d="M97.408,230.498c-1.449,10.791 -23.711,11.875 -28.205,1.776c-1.896,-4.266 3.7,-8.17 7.045,-5.256c10.222,8.907 11.589,-1.832 17.32,-0.957c3.164,0.482 3.761,3.975 3.84,4.437Z" style="fill:#091b36;"></path><path d="M48.632,219.784c0.235,0.217 1.927,1.778 2.128,3.355c0.095,0.727 0.682,5.269 -0.239,9.148c-2.338,4.465 -8.788,4.73 -8.847,-3.011c-0.025,-3.233 -1.293,-12.337 6.958,-9.492Z" style="fill:#091b36;"></path><path d="M124.478,231.669c-2.179,5.922 -8.992,4.409 -9.076,-1.778c-0.041,-3.006 -1.217,-10.913 5.055,-10.727c5.519,0.163 4.098,9.872 4.021,12.505Z" style="fill:#091b36;"></path><path d="M153.472,101.456l105.454,-0.034c8.979,-0.009 13.209,2.758 15.463,9.287c3.472,12.112 3.207,24.727 0.415,36.809c-8.553,37.006 -47.867,66.54 -89.966,58.827c-21.083,-24.85 -32.315,-58.455 -31.366,-104.889Z" style="fill:#f0e0b6;"></path><path d="M148.001,125.187c0.503,0.962 0.949,2.554 3.723,3.016c2.876,0.479 2.728,-0.332 4.674,-2.506c18.892,7.596 10.998,21.02 4.57,24.692c-1.398,0.801 -1.324,0.808 -2.669,1.625c-0.875,0.171 -14.273,4.243 -22.41,-4.876c-1.725,-1.934 -10.36,-16.846 11.543,-21.992l0.569,0.041Z" style="fill:#982c2c;"></path><path d="M248.967,124.541c2.182,1.735 11.388,1.824 14.593,11.112c5.616,16.279 -25.496,25.011 -33.602,8.576c-1.707,-3.462 -1.62,-7.44 0.347,-10.982c2.694,-4.845 9.219,-7.114 10.173,-7.446c1.781,2.501 6.096,4.841 8.489,-1.26Z" style="fill:#982c2c;"></path><path d="M248.967,124.541c-2.393,6.101 -6.708,3.761 -8.489,1.26c-1.296,-5.2 -1.916,-4.97 -2.516,-5.353c-4.452,-2.829 -5.725,3.59 -5.835,4.154c-1.008,5.083 -9.456,5.131 -9,-1.898c1.075,-16.621 27.313,-15.077 25.84,1.837Z"></path><path d="M154.25,112.464c17.8,-8.662 25.327,17.683 14.018,15.687c-5.261,-0.928 -2.515,-9.66 -8.634,-8.032c-2.636,0.702 -2.575,3.644 -3.236,5.578c-1.946,2.174 -1.798,2.985 -4.674,2.506c-2.774,-0.462 -3.22,-2.054 -3.723,-3.016c-1.071,-7.084 3.149,-10.579 6.249,-12.723Z"></path><path d="M185.009,134.324c0.485,-8.533 7.392,-4.226 7.579,-4.062c0.637,0.556 5.771,5.039 10.532,0.99c7.201,-6.124 9.232,1.569 8.556,3.699c-2.743,8.655 -23.378,10.204 -26.667,-0.627Z" style="fill:#010000;"></path></g></svg>