<?xml version="1.0" encoding="UTF-8" standalone="no"?> <svg xmlns="http://www.w3.org/2000/svg" xmlns:xlink="http://www.w3.org/1999/xlink" xmlns:serif="http://www.serif.com/" width="100%" height="100%" viewBox="0 0 84 84" xml:space="preserve" style="fill-rule:evenodd;clip-rule:evenodd;stroke-linejoin:round;stroke-miterlimit:2;"> <rect id="Artboard2" x="0" y="0" width="83.232" height="83.232" style="fill:none;"></rect> <clipPath id="_clip1"> <rect x="0" y="0" width="83.232" height="83.232"></rect> </clipPath> <g clip-path="url(#_clip1)"> <circle cx="41.623" cy="41.616" r="37.374" style="fill:#fff;"></circle> <path d="M41.623,-0.006c22.971,0 41.621,18.65 41.621,41.622c0,22.972 -18.65,41.622 -41.621,41.622c-22.972,-0 -41.622,-18.65 -41.622,-41.622c0,-22.972 18.65,-41.622 41.622,-41.622Zm-0,2.4c-21.647,0 -39.222,17.575 -39.222,39.222c0,21.647 17.575,39.222 39.222,39.222c21.647,-0 39.221,-17.575 39.221,-39.222c0,-21.647 -17.574,-39.222 -39.221,-39.222Z" style="fill:#0b376a;"></path> <circle cx="41.623" cy="41.616" r="34.871" style="fill:#d22627;"></circle> <circle cx="41.623" cy="41.616" r="39.285" style="fill:#0b376a;"></circle> <circle cx="41.623" cy="41.616" r="36.551" style="fill:#fff;"></circle> <circle cx="41.623" cy="41.616" r="33.191" style="fill:#d22627;"></circle> <path d="M44.51,22.777c0.568,0.182 9.865,-0.026 10.189,0.11c0.226,0.095 0.222,5.066 -0.017,5.238c-0.22,0.158 -9.532,-0.136 -10.168,0.15c-0.253,0.297 -0.208,0.355 -0.23,11.375c-0.003,1.866 0.241,2.446 -0.41,2.89c-2.13,1.453 -2.071,2.098 -2.534,1.662c-2.017,-1.896 -2.171,-1.709 -2.326,-1.892c-0.302,-0.355 0.09,-13.675 -0.224,-13.999c-0.338,-0.348 -9.846,-0.029 -10.325,-0.163c-0.382,-0.108 -0.159,-5.188 -0.134,-5.216c0.226,-0.257 10.173,0.101 10.457,-0.203c0.285,-0.306 0.007,-9.633 0.16,-9.819c0.198,-0.242 0.259,-0.1 1.023,-0.1c3.734,0.005 3.732,-0.027 4.055,-0.003c0.372,0.028 0.258,0.846 0.26,1.123c0.059,8.347 -0.125,8.425 0.224,8.847Z" style="fill:#fff;"></path> <path d="M42.79,57.754c0.001,-3.553 0.001,-7.107 0.001,-10.66c0.004,-1.79 6.713,-7.462 19.697,-5.137c0.382,0.068 0.321,0.247 0.315,4.46c-0.012,8.148 0.107,8.436 -0.326,8.419c-7.065,-0.277 -11.104,0.48 -15.938,3.028c-2.652,1.397 -3.535,2.522 -3.563,2.518c-0.268,-0.037 -0.187,-0.488 -0.186,-2.628Z" style="fill:#fff;"></path> <path d="M32.541,42.114c0.661,0.157 5.063,1.196 7.403,4.156c0.497,0.628 0.367,0.712 0.393,7.254c0.024,6.092 0.057,6.088 0.035,6.616c-0.023,0.552 -0.268,-0.09 -2.889,-1.783c-1.505,-0.971 -5.689,-2.958 -9.694,-3.307c-0.189,-0.016 -0.183,-0.008 -2.367,-0.197c-3.97,-0.344 -5.062,0.434 -5.066,-0.483c-0.003,-0.974 -0.043,-11.917 0.022,-12.173c0.1,-0.393 1.84,-0.444 3.352,-0.671c0.627,-0.094 5.033,-0.067 5.413,-0.015c1.712,0.235 1.709,0.201 3.398,0.603Z" style="fill:#fff;"></path> <path d="M67.137,45.649c0.306,0.79 -0.137,0.825 -0.007,10.582c0.037,2.748 -0.03,2.835 -0.259,2.856c-1.433,0.125 -7.842,-0.545 -12.519,0.166c-8.299,1.26 -12.124,7.496 -13.001,6.922c-1.108,-0.726 -6.334,-7.152 -15.592,-7.202c-7.624,-0.042 -7.612,0.157 -9.306,0.133c-1.043,-0.015 0.148,-0.761 -0.453,-13.03c-0.009,-0.181 0.024,-0.291 0.025,-0.305c0.007,-0.006 -0.077,-0.185 1.941,-0.765c0.503,-0.144 0.263,0.314 0.327,11.564c0.006,1.027 0.618,0.49 6.112,0.317c6.916,-0.219 12.169,3.401 13.07,4.022c0.006,0.004 1.716,1.006 3.759,3.028c0.772,0.764 0.9,-1.119 6.332,-4.192c8.868,-5.015 17.095,-1.521 17.296,-3.005c0.096,-0.713 -0.179,-11.643 0.129,-11.724c0.167,-0.044 1.431,0.299 2.146,0.633Z" style="fill:#fff;"></path> </g> </svg> 