<?xml version="1.0" encoding="UTF-8" standalone="no"?><!DOCTYPE svg PUBLIC "-//W3C//DTD SVG 1.1//EN" "http://www.w3.org/Graphics/SVG/1.1/DTD/svg11.dtd"><svg width="100%" height="100%" viewBox="0 0 119 119" version="1.1" xmlns="http://www.w3.org/2000/svg" xmlns:xlink="http://www.w3.org/1999/xlink" xml:space="preserve" xmlns:serif="http://www.serif.com/" style="fill-rule:evenodd;clip-rule:evenodd;stroke-linejoin:round;stroke-miterlimit:2;"><g><path d="M118.766,47.425l0,23.713c0,26.174 -21.25,47.425 -47.425,47.425l-23.916,-0c-26.175,-0 -47.425,-21.251 -47.425,-47.425l-0,-23.713c-0,-26.175 21.25,-47.425 47.425,-47.425l23.916,0c26.175,0 47.425,21.25 47.425,47.425Z" style="fill:#091b36;"/><path d="M24.35,32.367c1.001,-2.426 4.485,-5.1 8.098,-5.334l2.588,-0.004c1.506,-3.341 3.174,-5.72 7.04,-6.897c3.689,-1.125 8.627,-0.081 10.314,2.364c0.882,-0.229 1.725,-0.915 2.845,-1.311c5.362,-1.878 11.415,0.834 13.431,5.562c1.173,2.751 1.063,3.69 0.753,6.797c1.85,0.701 4.009,1.778 5.772,2.66c10.048,5.038 29.851,14.923 34.789,23.383c1.964,3.369 1.158,4.408 0.758,6.496c-0.215,1.115 1.067,3.274 -0.782,6.797c-2.288,4.366 -2.86,1.677 -2.85,5.219c0.029,7.764 -9.709,7.669 -16.505,8.388l-14.29,1.354c-1.987,0.019 -1.148,-2.15 0.949,-2.927c1.759,-0.653 10.2,-1.52 12.468,-1.839c2.693,-0.377 5.505,-0.82 8.117,-1.449c2.679,-0.644 5.405,-1.22 4.833,-4.485c-1.887,-0.444 -3.942,-0.72 -5.915,-0.954c-1.125,-0.133 -2.145,-0.233 -3.279,-0.286c-0.777,-0.038 -2.993,0.124 -3.231,-0.157c-0.849,-1.892 1.744,-2.864 3.255,-3.169c1.892,-0.382 4.351,-0.315 6.349,-0.158c3.417,0.267 4.356,1.092 5.233,-0.023c0.82,-1.044 2.126,-2.913 1.353,-4.886c-0.872,-0.319 -3.903,0.386 -7.611,-1.153c-1.735,-0.715 -4.757,-2.86 -2.645,-4.852c1.429,0.51 2.049,1.248 4.628,1.692c1.958,0.333 4.098,0.252 5.924,-0.215c-0.281,-0.939 -0.682,-1.263 -0.968,-1.982l-1.978,-2.35l-4.07,-3.27c-6.739,-5.29 -24.703,-14.947 -32.639,-18.15c-0.877,0.444 -1.482,1.182 -2.769,1.445c-1.401,0.29 -2.393,-0.143 -2.631,-1.263c0.391,-0.334 0.739,-0.449 1.125,-0.749c2.612,-2.059 3.47,-5.824 1.611,-8.698c-0.839,-1.292 -2.198,-2.46 -4.142,-2.908c-2.541,-0.581 -3.875,0.363 -5.462,1.197c0.229,1.735 0.596,2.869 0.028,4.628c-0.767,2.407 -3.102,2.245 -3.131,1.349l0.148,-0.977c0.195,-1.387 -0.181,-2.908 -0.825,-4.028c-3.141,-5.476 -10.991,-3.37 -11.896,1.444c3.632,3.341 2.955,6.911 0.877,7.049c-0.367,-0.4 -2.302,-5.495 -7.569,-4.346c-0.863,0.171 -1.63,0.433 -2.321,0.924c-1.125,0.677 -3.356,3.084 -2.869,5.391c5.176,0.219 16.062,0.925 19.265,5.324c1.31,1.801 0.939,5.033 -1.969,4.404c-0.805,-0.429 0.148,-2.283 -4.261,-3.727c-5.6,-1.835 -15.643,-1.835 -21.481,-1.635l6.601,5.924c0.758,0.596 1.392,1.168 2.159,1.873c0.834,0.772 8.813,7.088 8.913,7.398c0.534,0.238 1.806,1.115 2.097,1.625c1.234,0.233 8.908,7.182 19.208,9.852c3.984,1.034 8.999,1.458 12.168,-0.701c1.201,-0.815 2.664,-2.579 1.606,-4.819c-1.787,-3.784 -10.972,-2.569 -15.266,-6.601c-0.92,-0.867 -2.14,-2.874 -2.412,-4.814c-0.834,-5.943 5.391,-9.89 12.369,-8.836c6.968,1.048 7.44,6.124 5.204,6.815c-0.729,-0.467 -0.648,-0.748 -1.997,-1.453c-2.645,-1.383 -5.915,-1.854 -8.665,-0.711c-1.52,0.63 -3.188,2.059 -2.445,4.261c1.502,4.443 9.633,3.141 14.461,6.378c5.762,3.865 4.561,13.726 -5.791,15.418c-7.502,1.225 -15.662,-2.14 -21.896,-5.548c-1.396,-0.762 -7.902,-4.751 -8.35,-5.504l-1.735,-1.178c-0.01,-0.047 -0.053,-0.047 -0.077,-0.076l-0.533,-0.362c-0.672,-0.434 -3.16,-2.283 -3.442,-2.831c-0.576,-0.139 -1.158,-0.758 -1.649,-1.168l-21.819,-18.569c2.492,-0.081 5.061,-0.401 7.592,-0.553c2.336,-0.143 5.51,-0.024 7.707,-0.31c0.072,-1.601 0.42,-3.427 1.239,-4.842c0.215,-0.363 0.062,-0.248 0.291,-0.353Zm-13.627,24.103c1.306,-7.965 10.276,-7.85 8.942,-4.095c-0.672,0.358 -1.525,0.391 -2.312,0.882c-2.03,1.263 -3.179,4.085 -2.121,6.573c1.011,2.383 3.594,3.765 6.134,3.15c1.025,-0.248 1.364,-0.634 2.093,-0.943c1.854,1.968 -1.063,5.037 -5.758,4.508c-1.444,4.366 1.239,7.998 4.795,8.732c2.936,0.605 5.691,-0.853 7.049,-3.274c0.281,-0.501 0.734,-2.469 0.911,-2.626c0.8,-0.72 1.968,0.657 2.183,1.134c1.029,2.326 -0.734,5.715 -2.731,7.23c-1.349,1.02 -3.127,0.505 -2.345,4.409c0.409,2.054 1.525,3.174 2.907,4.209c0.615,0.338 1.196,0.61 1.978,0.786c1.978,0.543 4.156,-0.095 5.433,-1.091c2.164,-1.697 1.983,-2.87 2.636,-4.443c1.573,-0.209 2.174,0.849 2.193,2.374c0.014,1.601 -0.496,2.212 -0.93,3.451c-1.21,3.446 4.504,9.041 9.652,5.943c3.045,-1.83 2.802,-4.313 3.379,-5.347c1.482,-0.129 2.111,0.915 2.269,2.216c0.195,1.639 -0.239,2.383 -0.606,3.732l1.364,0.467c1.501,0.21 2.13,0.119 3.531,-0.148c2.069,-1.334 3.766,-1.592 4.462,-5.796c2.397,-0.343 3.179,1.445 2.65,3.78c-1.04,4.556 -7.298,8.222 -13.198,5.862c-1.02,-0.409 -1.506,-1.077 -2.436,-0.672c-3.632,1.592 -7.659,1.497 -10.767,-0.753c-3.198,-2.311 -3.069,-3.469 -4.265,-5.514l-0.153,-0.219c-1.635,0.457 -3.484,0.948 -5.214,0.548c-1.864,-0.205 -3.375,-0.925 -4.714,-1.826c-0.658,-0.443 -1.249,-0.924 -1.72,-1.477c-0.253,-0.296 -1.049,-1.416 -1.302,-1.559c-1.191,-2.721 -1.682,-3.432 -1.582,-6.987c-4.128,-0.358 -6.658,-2.35 -8.293,-4.652c-2.555,-3.594 -1.997,-6.739 -1.178,-10.219c-0.958,-1.034 -2.03,-2.111 -2.607,-3.965c-0.486,-1.268 -0.605,-2.965 -0.329,-4.38Z" style="fill:#e6ebef;"/></g></svg>