<?xml version="1.0" encoding="UTF-8" standalone="no"?><!DOCTYPE svg PUBLIC "-//W3C//DTD SVG 1.1//EN" "http://www.w3.org/Graphics/SVG/1.1/DTD/svg11.dtd"><svg width="100%" height="100%" viewBox="0 0 119 119" version="1.1" xmlns="http://www.w3.org/2000/svg" xmlns:xlink="http://www.w3.org/1999/xlink" xml:space="preserve" xmlns:serif="http://www.serif.com/" style="fill-rule:evenodd;clip-rule:evenodd;stroke-linejoin:round;stroke-miterlimit:2;"><path d="M118.766,47.425l0,23.713c0,26.174 -21.25,47.425 -47.425,47.425l-23.916,-0c-26.175,-0 -47.425,-21.251 -47.425,-47.425l-0,-23.713c-0,-26.175 21.25,-47.425 47.425,-47.425l23.916,0c26.175,0 47.425,21.25 47.425,47.425Zm-108.043,9.045c-0.276,1.415 -0.157,3.112 0.329,4.38c0.577,1.854 1.649,2.931 2.607,3.965c-0.819,3.48 -1.377,6.625 1.178,10.219c1.635,2.302 4.165,4.294 8.293,4.652c-0.1,3.555 0.391,4.266 1.582,6.987c0.253,0.143 1.049,1.263 1.302,1.559c0.471,0.553 1.062,1.034 1.72,1.477c1.339,0.901 2.85,1.621 4.714,1.826c1.73,0.4 3.579,-0.091 5.214,-0.548l0.153,0.219c1.196,2.045 1.067,3.203 4.265,5.514c3.108,2.25 7.135,2.345 10.767,0.753c0.93,-0.405 1.416,0.263 2.436,0.672c5.9,2.36 12.158,-1.306 13.198,-5.862c0.529,-2.335 -0.253,-4.123 -2.65,-3.78c-0.696,4.204 -2.393,4.462 -4.462,5.796c-1.401,0.267 -2.03,0.358 -3.531,0.148l-1.364,-0.467c0.367,-1.349 0.801,-2.093 0.606,-3.732c-0.158,-1.301 -0.787,-2.345 -2.269,-2.216c-0.577,1.034 -0.334,3.517 -3.379,5.347c-5.148,3.098 -10.862,-2.497 -9.652,-5.943c0.434,-1.239 0.944,-1.85 0.93,-3.451c-0.019,-1.525 -0.62,-2.583 -2.193,-2.374c-0.653,1.573 -0.472,2.746 -2.636,4.443c-1.277,0.996 -3.455,1.634 -5.433,1.091c-0.782,-0.176 -1.363,-0.448 -1.978,-0.786c-1.382,-1.035 -2.498,-2.155 -2.907,-4.209c-0.782,-3.904 0.996,-3.389 2.345,-4.409c1.997,-1.515 3.76,-4.904 2.731,-7.23c-0.215,-0.477 -1.383,-1.854 -2.183,-1.134c-0.177,0.157 -0.63,2.125 -0.911,2.626c-1.358,2.421 -4.113,3.879 -7.049,3.274c-3.556,-0.734 -6.239,-4.366 -4.795,-8.732c4.695,0.529 7.612,-2.54 5.758,-4.508c-0.729,0.309 -1.068,0.695 -2.093,0.943c-2.54,0.615 -5.123,-0.767 -6.134,-3.15c-1.058,-2.488 0.091,-5.31 2.121,-6.573c0.787,-0.491 1.64,-0.524 2.312,-0.882c1.334,-3.755 -7.636,-3.87 -8.942,4.095Zm13.627,-24.103c-0.229,0.105 -0.076,-0.01 -0.291,0.353c-0.819,1.415 -1.167,3.241 -1.239,4.842c-2.197,0.286 -5.371,0.167 -7.707,0.31c-2.531,0.152 -5.1,0.472 -7.592,0.553l21.819,18.569c0.491,0.41 1.073,1.029 1.649,1.168c0.282,0.548 2.77,2.397 3.442,2.831l0.533,0.362c0.024,0.029 0.067,0.029 0.077,0.076l1.735,1.178c0.448,0.753 6.954,4.742 8.35,5.504c6.234,3.408 14.394,6.773 21.896,5.548c10.352,-1.692 11.553,-11.553 5.791,-15.418c-4.828,-3.237 -12.959,-1.935 -14.461,-6.378c-0.743,-2.202 0.925,-3.631 2.445,-4.261c2.75,-1.143 6.02,-0.672 8.665,0.711c1.349,0.705 1.268,0.986 1.997,1.453c2.236,-0.691 1.764,-5.767 -5.204,-6.815c-6.978,-1.054 -13.203,2.893 -12.369,8.836c0.272,1.94 1.492,3.947 2.412,4.814c4.294,4.032 13.479,2.817 15.266,6.601c1.058,2.24 -0.405,4.004 -1.606,4.819c-3.169,2.159 -8.184,1.735 -12.168,0.701c-10.3,-2.67 -17.974,-9.619 -19.208,-9.852c-0.291,-0.51 -1.563,-1.387 -2.097,-1.625c-0.1,-0.31 -8.079,-6.626 -8.913,-7.398c-0.767,-0.705 -1.401,-1.277 -2.159,-1.873l-6.601,-5.924c5.838,-0.2 15.881,-0.2 21.481,1.635c4.409,1.444 3.456,3.298 4.261,3.727c2.908,0.629 3.279,-2.603 1.969,-4.404c-3.203,-4.399 -14.089,-5.105 -19.265,-5.324c-0.487,-2.307 1.744,-4.714 2.869,-5.391c0.691,-0.491 1.458,-0.753 2.321,-0.924c5.267,-1.149 7.202,3.946 7.569,4.346c2.078,-0.138 2.755,-3.708 -0.877,-7.049c0.905,-4.814 8.755,-6.92 11.896,-1.444c0.644,1.12 1.02,2.641 0.825,4.028l-0.148,0.977c0.029,0.896 2.364,1.058 3.131,-1.349c0.568,-1.759 0.201,-2.893 -0.028,-4.628c1.587,-0.834 2.921,-1.778 5.462,-1.197c1.944,0.448 3.303,1.616 4.142,2.908c1.859,2.874 1.001,6.639 -1.611,8.698c-0.386,0.3 -0.734,0.415 -1.125,0.749c0.238,1.12 1.23,1.553 2.631,1.263c1.287,-0.263 1.892,-1.001 2.769,-1.445c7.936,3.203 25.9,12.86 32.639,18.15l4.07,3.27l1.978,2.35c0.286,0.719 0.687,1.043 0.968,1.982c-1.826,0.467 -3.966,0.548 -5.924,0.215c-2.579,-0.444 -3.199,-1.182 -4.628,-1.692c-2.112,1.992 0.91,4.137 2.645,4.852c3.708,1.539 6.739,0.834 7.611,1.153c0.773,1.973 -0.533,3.842 -1.353,4.886c-0.877,1.115 -1.816,0.29 -5.233,0.023c-1.998,-0.157 -4.457,-0.224 -6.349,0.158c-1.511,0.305 -4.104,1.277 -3.255,3.169c0.238,0.281 2.454,0.119 3.231,0.157c1.134,0.053 2.154,0.153 3.279,0.286c1.973,0.234 4.028,0.51 5.915,0.954c0.572,3.265 -2.154,3.841 -4.833,4.485c-2.612,0.629 -5.424,1.072 -8.117,1.449c-2.268,0.319 -10.709,1.186 -12.468,1.839c-2.097,0.777 -2.936,2.946 -0.949,2.927l14.29,-1.354c6.796,-0.719 16.534,-0.624 16.505,-8.388c-0.01,-3.542 0.562,-0.853 2.85,-5.219c1.849,-3.523 0.567,-5.682 0.782,-6.797c0.4,-2.088 1.206,-3.127 -0.758,-6.496c-4.938,-8.46 -24.741,-18.345 -34.789,-23.383c-1.763,-0.882 -3.922,-1.959 -5.772,-2.66c0.31,-3.107 0.42,-4.046 -0.753,-6.797c-2.016,-4.728 -8.069,-7.44 -13.431,-5.562c-1.12,0.396 -1.963,1.082 -2.845,1.311c-1.687,-2.445 -6.625,-3.489 -10.314,-2.364c-3.866,1.177 -5.534,3.556 -7.04,6.897l-2.588,0.004c-3.613,0.234 -7.097,2.908 -8.098,5.334Z" style="fill:#b32b2f;"/></svg>